<?xml version="1.0" standalone="no"?>
<!DOCTYPE svg PUBLIC "-//W3C//DTD SVG 20010904//EN"
 "http://www.w3.org/TR/2001/REC-SVG-20010904/DTD/svg10.dtd">
<svg version="1.0" xmlns="http://www.w3.org/2000/svg"
 width="283.000000pt" height="283.000000pt" viewBox="0 0 283.000000 283.000000"
 preserveAspectRatio="xMidYMid meet">
<metadata>
Created by potrace 1.14, written by Peter Selinger 2001-2017
</metadata>
<g transform="translate(0.000000,283.000000) scale(0.100000,-0.100000)"
fill="#000000" stroke="none">
<path d="M703 2565 c93 -56 157 -107 234 -186 136 -141 229 -289 311 -499 23
-59 70 -199 77 -230 0 -3 8 -39 18 -80 9 -41 21 -102 27 -135 5 -33 12 -69 14
-81 6 -31 19 -173 20 -221 1 -55 10 -44 13 15 4 81 24 244 39 317 8 39 17 85
20 104 9 56 73 258 109 346 125 302 306 520 547 661 38 22 40 24 13 18 -50
-10 -196 -65 -265 -99 -131 -64 -216 -122 -307 -208 -46 -44 -127 -76 -179
-71 -53 5 -114 38 -172 93 -105 100 -267 191 -450 255 -57 20 -109 36 -115 36
-7 0 14 -16 46 -35z"/>
<path d="M1350 2561 c-129 -69 -84 -256 61 -256 91 0 154 83 129 173 -14 55
-74 102 -128 102 -15 0 -43 -8 -62 -19z"/>
<path d="M680 2372 c53 -36 100 -94 136 -167 31 -63 38 -89 42 -153 3 -67 1
-83 -20 -122 -40 -73 -81 -88 -268 -94 -85 -2 -171 -7 -190 -11 -166 -28 -354
-77 -364 -94 -2 -3 64 -7 148 -8 132 -1 166 -5 267 -31 180 -46 332 -119 480
-229 89 -66 255 -233 318 -320 29 -40 55 -73 58 -73 3 0 2 15 -1 33 -3 17 -9
52 -12 77 -3 25 -10 61 -14 80 -5 19 -12 51 -15 70 -24 141 -82 349 -138 496
-113 294 -270 500 -424 554 l-28 10 25 -18z"/>
<path d="M2100 2363 c-162 -81 -328 -335 -430 -658 -42 -135 -96 -357 -116
-480 -3 -16 -9 -54 -14 -84 -13 -75 -13 -92 3 -66 55 93 204 257 312 344 186
149 335 224 552 278 92 22 131 27 260 27 83 1 150 2 149 3 -8 8 -177 62 -208
67 -21 3 -59 11 -84 16 -79 18 -104 20 -269 26 -194 7 -235 21 -273 94 -20 39
-23 56 -19 122 3 64 10 90 41 152 35 72 84 131 136 168 37 25 21 22 -40 -9z"/>
<path d="M555 2174 c-122 -63 -83 -254 53 -257 55 -1 99 20 123 60 38 61 21
152 -35 188 -35 23 -105 27 -141 9z"/>
<path d="M2140 2172 c-44 -22 -80 -88 -73 -135 7 -48 39 -93 76 -108 102 -42
203 26 194 132 -5 57 -30 93 -80 114 -48 19 -74 19 -117 -3z"/>
<path d="M173 1313 c-8 -3 15 -38 58 -89 123 -148 249 -361 325 -551 l29 -73
40 0 c50 0 182 -23 295 -51 177 -44 333 -123 432 -217 l57 -54 32 32 c76 76
195 149 314 194 74 27 206 63 265 72 19 3 41 7 47 9 7 2 45 7 85 11 40 3 78
11 84 17 6 7 23 44 38 82 66 170 205 400 325 540 33 39 60 73 61 76 0 11 -300
-1 -380 -16 -14 -3 -41 -7 -60 -10 -76 -12 -239 -58 -325 -92 -163 -64 -287
-142 -409 -256 l-79 -74 -56 56 c-154 157 -358 268 -611 334 -102 27 -164 38
-291 52 -72 8 -260 14 -276 8z"/>
<path d="M20 1114 c0 -8 4 -14 8 -14 11 0 162 -155 215 -220 63 -78 133 -188
193 -300 36 -68 56 -95 70 -96 74 -4 187 -17 252 -29 42 -8 88 -16 102 -19
158 -28 360 -104 460 -174 22 -15 13 -3 -23 31 -33 31 -93 74 -135 95 -76 39
-229 96 -287 106 -16 3 -41 8 -55 11 -68 14 -141 25 -200 30 -41 4 -71 13 -82
23 -9 9 -29 51 -46 92 -37 95 -98 223 -131 275 -135 218 -117 202 -239 203
-82 0 -102 -2 -102 -14z"/>
<path d="M2585 1114 c-17 -18 -93 -133 -137 -209 -32 -57 -93 -186 -133 -285
-27 -67 -42 -78 -115 -85 -102 -10 -160 -20 -265 -45 -169 -39 -323 -113 -415
-200 l-55 -51 59 37 c112 70 248 119 436 159 69 15 141 28 160 30 61 7 154 16
185 18 27 2 35 11 80 98 91 174 201 323 339 459 42 41 76 78 76 83 0 14 -199
6 -215 -9z"/>
</g>
</svg>
